<?xml version="1.0" encoding="utf-8"?>
<!-- Generator: Adobe Illustrator 14.0.0, SVG Export Plug-In . SVG Version: 6.00 Build 43363)  -->
<!DOCTYPE svg PUBLIC "-//W3C//DTD SVG 1.1//EN" "http://www.w3.org/Graphics/SVG/1.1/DTD/svg11.dtd">
<svg version="1.1" id="Ebene_1" xmlns="http://www.w3.org/2000/svg" xmlns:xlink="http://www.w3.org/1999/xlink" x="0px" y="0px"
	 width="595.279px" height="595.281px" viewBox="0 0 595.279 595.281" enable-background="new 0 0 595.279 595.281"
	 xml:space="preserve">
<path fill="#ECAE53" d="M0,0h595.279v595.28H0V0z"/>
<g>
	<circle fill="#FCFCFC" cx="328.347" cy="456.49" r="8.971"/>
	<circle fill="#FCFCFC" cx="301.434" cy="492.374" r="8.971"/>
	<circle fill="#FCFCFC" cx="355.26" cy="483.403" r="8.971"/>
	<circle fill="#FCFCFC" cx="391.143" cy="465.461" r="8.971"/>
	<path fill="#FCFCFC" d="M187.549,430.143l-15.214,26.348l15.214,26.349h30.412l15.215-26.349l-15.215-26.348H187.549z
		 M207.599,464.888h-9.707l-4.853-8.405l4.853-8.407h9.707l4.853,8.407L207.599,464.888z"/>
	<path fill="#FCFCFC" d="M241.374,393.694l-15.214,26.347l15.214,26.348h30.411l15.215-26.348l-15.215-26.347H241.374z
		 M261.424,428.438h-9.706l-4.853-8.406l4.853-8.405h9.706l4.854,8.405L261.424,428.438z"/>
	<path fill="#FCFCFC" d="M485.707,37.431c-3.508-3.507-9.177-3.507-12.686,0L402.6,107.853l0,0l-0.377,0.376l-0.951,0.942l0,0
		L290.042,220.42l-0.942,0.735l-7.571,6.415l7.025,7.015c2.52,2.521,3.911,5.903,3.911,9.519c0,3.615-1.391,6.988-3.92,9.518
		c-5.042,5.041-13.968,5.05-19.027,0l-25.37-25.379c-5.248-5.248-5.248-13.789,0-19.037c5.248-5.23,13.789-5.221,19.162,0.134
		l7.024,7.024l6.28-7.697l101.847-102.044l0,0l56.437-56.437c3.508-3.507,3.508-9.177,0-12.685c-3.508-3.507-9.178-3.507-12.685,0
		l-69.122,69.122H193.783c-14.838,0-26.912,12.075-26.912,26.913v17.942c0,14.533,11.59,26.42,26.006,26.895
		c-1.982,4.782-7.419,7.715-18.175,12.667c-18.444,8.478-43.715,20.104-43.715,62.904v199.101c0,46.416,37.758,84.183,84.184,84.183
		h154.596c46.415,0,84.175-37.767,84.175-84.183V253.945c0-42.8-25.263-54.418-43.717-62.904
		c-10.764-4.952-16.2-7.885-18.175-12.667c14.416-0.475,26.007-12.361,26.007-26.895v-17.942c0-4.405-1.229-8.648-3.283-12.487
		l70.934-70.934C489.215,46.608,489.215,40.938,485.707,37.431z M266.35,275.815c5.248,5.249,5.248,13.789,0,19.036
		c-5.248,5.24-13.789,5.24-19.027,0l-22.204-22.203l-12.685-12.694c-0.009-0.009-0.018-0.009-0.026-0.018l-9.492-9.491
		c-2.52-2.521-3.911-5.903-3.911-9.519s1.391-6.988,3.92-9.518c2.521-2.521,5.903-3.92,9.509-3.92c3.607,0,6.989,1.39,9.518,3.92
		l22.204,22.203l12.685,12.685c0,0,0.009,0.008,0.019,0.008L266.35,275.815z M225.119,298.028c2.521,2.521,3.912,5.903,3.912,9.518
		s-1.39,6.988-3.921,9.519l0,0c-5.05,5.051-13.967,5.051-19.027,0l-25.369-25.371c-5.249-5.248-5.249-13.788,0-19.036
		c2.619-2.62,6.073-3.929,9.518-3.929c3.445,0,6.89,1.31,9.509,3.929l12.694,12.694L225.119,298.028z M369.766,519.287H215.171
		c-36.521,0-66.242-29.72-66.242-66.241v-71.454c13.286,7.706,25.549,11.143,37.364,11.143c20.875,0,40.333-10.64,61.523-26.967
		c31.613-24.383,53.834-22.912,91.43,6.064c19.002,14.64,35.598,22.006,52.499,22.006c14.031,0,28.277-5.141,44.244-15.332v74.549
		C435.999,489.567,406.287,519.287,369.766,519.287z M402.725,207.332c17.107,7.877,33.264,15.304,33.264,46.604v102.771
		c-34.179,25.396-54.004,25.405-85.788,0.906c-37.409-28.824-69.436-39.912-113.339-6.064c-36.189,27.872-58.141,30.223-87.942,8.62
		V253.945c0-31.3,16.157-38.728,33.265-46.604c13.833-6.36,29.532-13.582,29.532-34.135V160.45h-17.941
		c-4.943,0-8.971-4.019-8.971-8.971v-17.942c0-4.952,4.028-8.971,8.971-8.971h141.363l-66.546,66.546
		c-11.886-6.433-27.093-4.62-37.14,5.419c-4.333,4.324-7.051,9.634-8.316,15.205c-11.151-3.831-24.365-1.561-32.914,6.997
		c-5.921,5.904-9.178,13.789-9.178,22.204c0,3.75,0.745,7.365,1.983,10.774c-5.5,1.292-10.738,3.983-15.026,8.253
		c-12.237,12.245-12.237,32.161,0,44.406l25.37,25.37c5.912,5.912,13.797,9.169,22.203,9.169c8.406,0,16.282-3.257,22.203-9.169
		c4.181-4.181,6.954-9.365,8.263-14.999c3.481,1.265,7.114,1.982,10.765,1.982c8.038,0,16.076-3.06,22.204-9.178
		c5.912-5.911,9.168-13.797,9.168-22.203c0-3.84-0.762-7.535-2.063-11.016c5.616-1.229,10.917-3.849,15.089-8.021
		c5.911-5.902,9.168-13.788,9.168-22.202c0-5.293-1.292-10.38-3.75-14.928l66.547-66.555v10.585
		C373.202,193.759,388.892,200.972,402.725,207.332z M400.115,151.479c0,4.952-4.028,8.971-8.972,8.971h-15.771l24.742-24.742
		V151.479z"/>
</g>
</svg>
